<svg xmlns="http://www.w3.org/2000/svg" width="138.304" height="138.307" viewBox="0 0 138.304 138.307"><defs><style>.a{fill:#efc566;}</style></defs><g transform="translate(32.154)"><path class="a" d="M121.739,0a2.7,2.7,0,1,0,0,5.4C137,5.4,149.414,18.141,149.414,33.8a2.7,2.7,0,0,0,5.4,0C154.818,15.162,139.978,0,121.739,0Z" transform="translate(-119.037)"/></g><g transform="translate(32.145 12.817)"><path class="a" d="M121.706,47.447a2.7,2.7,0,1,0,0,5.4A15.388,15.388,0,0,1,136.86,68.427a2.7,2.7,0,0,0,5.4,0A20.8,20.8,0,0,0,121.706,47.447Z" transform="translate(-119.004 -47.447)"/></g><g transform="translate(32.197 24.624)"><path class="a" d="M121.9,91.155a2.7,2.7,0,1,0,0,5.4,3.62,3.62,0,0,1,3.54,3.688,2.7,2.7,0,1,0,5.4,0A9.028,9.028,0,0,0,121.9,91.155Z" transform="translate(-119.198 -91.155)"/></g><g transform="translate(74.006 21.412)"><path class="a" d="M323.813,79.265h-5.989a2.7,2.7,0,0,0,0,5.4h5.989a9.061,9.061,0,0,1,9.05,9.05v36.673a9.037,9.037,0,0,1-3.442,7.1v-7.065a11.455,11.455,0,0,0-9.351-11.256l-1.746-.326a12.19,12.19,0,0,0,.6-3.789v-6.208a12.242,12.242,0,1,0-24.484,0v6.208a12.2,12.2,0,0,0,.6,3.789l-1.746.326a11.454,11.454,0,0,0-9.351,11.256v7.832a9.054,9.054,0,0,1-4.576-7.862V93.719a9.061,9.061,0,0,1,9.05-9.05h6.439a2.7,2.7,0,0,0,0-5.4h-6.439a14.47,14.47,0,0,0-14.454,14.454v36.673a14.47,14.47,0,0,0,14.454,14.454h13.595v7.768a2.7,2.7,0,0,0,4.606,1.917l9.745-9.684h7.445a14.47,14.47,0,0,0,14.454-14.454V93.719A14.47,14.47,0,0,0,323.813,79.265Zm-23.967,29.578a6.839,6.839,0,1,1,13.678,0v6.208a6.839,6.839,0,1,1-13.678,0Zm24.172,30.593c-.068,0-.136.005-.205.005h-8.559a2.7,2.7,0,0,0-1.9.785l-5.93,5.893v-3.976a2.7,2.7,0,0,0-2.7-2.7H289.352v-9.02a6.05,6.05,0,0,1,4.938-5.945l3.809-.71a12.216,12.216,0,0,0,17.173,0l3.809.71a6.049,6.049,0,0,1,4.938,5.945v9.015Z" transform="translate(-273.969 -79.265)"/></g><g transform="translate(102.372 21.413)"><path class="a" d="M383.591,80.06a2.7,2.7,0,1,0,.792,1.91A2.71,2.71,0,0,0,383.591,80.06Z" transform="translate(-378.98 -79.269)"/></g><g transform="translate(45.598 90.09)"><path class="a" d="M173.418,334.3a2.7,2.7,0,1,0,.791,1.91A2.717,2.717,0,0,0,173.418,334.3Z" transform="translate(-168.806 -333.507)"/></g><g transform="translate(0 26.594)"><path class="a" d="M109.349,187.164l-20.7-20.7a8.109,8.109,0,0,0-10.305-.959l-13.21,9.033a2.7,2.7,0,0,1-3.435-.32l-4.368-4.369a2.7,2.7,0,0,0-3.821,3.821l4.368,4.369A8.109,8.109,0,0,0,68.185,179l13.21-9.032a2.7,2.7,0,0,1,3.435.32l20.7,20.7a2.705,2.705,0,0,1,0,3.821,34.079,34.079,0,0,1-48.14,0L15.361,152.778a34.041,34.041,0,0,1,0-48.14,2.7,2.7,0,0,1,3.82,0l20.7,20.7a2.7,2.7,0,0,1,.32,3.435l-9.032,13.21a8.109,8.109,0,0,0,.959,10.305l6.566,6.566a2.7,2.7,0,0,0,3.821-3.821l-6.566-6.566a2.7,2.7,0,0,1-.32-3.435l9.032-13.21a8.109,8.109,0,0,0-.959-10.305L23,100.817a8.115,8.115,0,0,0-11.462,0,39.489,39.489,0,0,0,0,55.782l42.027,42.027a39.488,39.488,0,0,0,55.781,0A8.114,8.114,0,0,0,109.349,187.164Z" transform="translate(-0.006 -98.447)"/></g><g transform="translate(15.403 49.262)"><path class="a" d="M78.016,199.533,61.639,183.156a2.7,2.7,0,1,0-3.821,3.821L74.2,203.354a2.7,2.7,0,1,0,3.821-3.821Z" transform="translate(-57.027 -182.365)"/></g><g transform="translate(77.228 111.087)"><path class="a" d="M307.742,429.257,290.51,412.026a2.7,2.7,0,0,0-3.821,3.821l17.231,17.231a2.7,2.7,0,0,0,3.821-3.821Z" transform="translate(-285.898 -411.235)"/></g></svg>